<svg xmlns="http://www.w3.org/2000/svg" version="1.1" xmlns:xlink="http://www.w3.org/1999/xlink" width="512" height="512" x="0" y="0" viewBox="0 0 24 24" style="enable-background:new 0 0 512 512" xml:space="preserve" class=""><g><g data-name="1"><path fill="#f8749d" d="M8.53 9.23 7.061 10.7l1.469 1.47a.75.75 0 1 1-1.06 1.06l-2-2a.749.749 0 0 1 0-1.06l2-2a.75.75 0 1 1 1.06 1.06zm10 .94-2-2a.75.75 0 1 0-1.06 1.06l1.469 1.47-1.469 1.47a.75.75 0 1 0 1.06 1.06l2-2a.749.749 0 0 0 0-1.06z" opacity="1" data-original="#1fc759"></path><path d="M21.031 2.94A6.848 6.848 0 0 0 16 1.22H8c-4.416 0-6.75 2.334-6.75 6.75v5c0 2.662.558 4.391 1.756 5.44 1.32 1.154 3.265 1.31 4.994 1.31h.5a.471.471 0 0 1 .2.1l1.5 2a2.265 2.265 0 0 0 1.8.96 2.268 2.268 0 0 0 1.8-.96l1.5-2a.249.249 0 0 1 .2-.1h.5c4.416 0 6.75-2.334 6.75-6.75v-5a6.845 6.845 0 0 0-1.719-5.03zm.219 10.03c0 3.582-1.668 5.25-5.25 5.25h-.5a1.758 1.758 0 0 0-1.4.7l-1.5 2a.68.68 0 0 1-1.2 0l-1.5-2a1.888 1.888 0 0 0-1.4-.7H8c-2.055 0-3.253-.281-4.006-.939-.849-.743-1.244-2.113-1.244-4.311v-5c0-3.582 1.668-5.25 5.25-5.25h8A5.438 5.438 0 0 1 19.97 4a5.441 5.441 0 0 1 1.28 3.97zm-7.561-4.308-2 4.667a.75.75 0 1 1-1.378-.591l2-4.667a.75.75 0 1 1 1.378.591z" fill="#ffffff" opacity="1" data-original="#000000" class=""></path></g></g></svg>