<svg xmlns="http://www.w3.org/2000/svg" version="1.1" xmlns:xlink="http://www.w3.org/1999/xlink" width="512" height="512" x="0" y="0" viewBox="0 0 24 24" style="enable-background:new 0 0 512 512" xml:space="preserve" class=""><g><g data-name="1"><path fill="#f8749d" d="M12 9.25A2.75 2.75 0 1 0 14.75 12 2.752 2.752 0 0 0 12 9.25zm0 4A1.25 1.25 0 1 1 13.25 12 1.252 1.252 0 0 1 12 13.25z" opacity="1" data-original="#1fc759"></path><path d="M22.75 12a10.656 10.656 0 0 1-2.15 6.452.749.749 0 0 1-.6.3.742.742 0 0 1-.449-.15.75.75 0 0 1-.15-1.05 9.253 9.253 0 0 0 0-11.1.75.75 0 0 1 1.2-.9A10.66 10.66 0 0 1 22.75 12zM4.45 5.4a.749.749 0 0 0-1.05.149 10.756 10.756 0 0 0 0 12.9.751.751 0 0 0 1.2-.9 9.252 9.252 0 0 1 0-11.1.75.75 0 0 0-.15-1.049zm11.9 2.4a.749.749 0 0 0-.15 1.05 5.25 5.25 0 0 1 0 6.3.75.75 0 0 0 1.2.9 6.751 6.751 0 0 0 0-8.1.749.749 0 0 0-1.05-.15zm-8.7 0a.747.747 0 0 0-1.05.148 6.751 6.751 0 0 0 0 8.1.749.749 0 0 0 .6.3.741.741 0 0 0 .45-.148.749.749 0 0 0 .15-1.05 5.25 5.25 0 0 1 0-6.3.75.75 0 0 0-.15-1.05z" fill="#ffffff" opacity="1" data-original="#000000" class=""></path></g></g></svg>