<svg xmlns="http://www.w3.org/2000/svg" version="1.1" xmlns:xlink="http://www.w3.org/1999/xlink" width="512" height="512" x="0" y="0" viewBox="0 0 24 24" style="enable-background:new 0 0 512 512" xml:space="preserve" class=""><g><g data-name="1"><path d="M21.664 6.731a3.173 3.173 0 0 0-1.851-2.757l-5.571-2.282a5.878 5.878 0 0 0-4.484 0L4.187 3.973a3.175 3.175 0 0 0-1.852 2.758v4.386a12.245 12.245 0 0 0 8.954 11.537 2.685 2.685 0 0 0 1.423 0 12.245 12.245 0 0 0 8.953-11.537zm-9.351 14.477a1.184 1.184 0 0 1-.625 0 10.721 10.721 0 0 1-7.853-10.091V6.731a1.676 1.676 0 0 1 .919-1.37l5.573-2.281a4.381 4.381 0 0 1 3.346 0l5.572 2.282a1.673 1.673 0 0 1 .919 1.369v4.386a10.721 10.721 0 0 1-7.851 10.091z" fill="#ffffff" opacity="1" data-original="#000000"></path><path fill="#f8749d" d="M14.75 10.5a2.75 2.75 0 1 0-3.5 2.633V15.5a.75.75 0 0 0 1.5 0v-2.367a2.745 2.745 0 0 0 2-2.633zM12 11.75a1.25 1.25 0 1 1 1.25-1.25A1.252 1.252 0 0 1 12 11.75z" opacity="1" data-original="#1fc759" class=""></path></g></g></svg>