<svg xmlns="http://www.w3.org/2000/svg" version="1.1" xmlns:xlink="http://www.w3.org/1999/xlink" width="512" height="512" x="0" y="0" viewBox="0 0 24 24" style="enable-background:new 0 0 512 512" xml:space="preserve" class=""><g><g data-name="1"><path d="m18.767 3.4-5-1.873a5.746 5.746 0 0 0-3.542 0L5.233 3.4a4.213 4.213 0 0 0-2.578 3.72v7.43a5.6 5.6 0 0 0 2.027 4.05l4.3 3.211a5.078 5.078 0 0 0 3.018.946 5.072 5.072 0 0 0 3.021-.949l4.3-3.21a5.6 5.6 0 0 0 2.027-4.044v-7.43A4.213 4.213 0 0 0 18.767 3.4zm1.078 11.15a4.126 4.126 0 0 1-1.425 2.85l-4.3 3.21a3.816 3.816 0 0 1-4.246 0L5.58 17.4a4.126 4.126 0 0 1-1.425-2.842V7.124a2.736 2.736 0 0 1 1.606-2.315l4.993-1.873a4.263 4.263 0 0 1 2.491 0l4.994 1.873a2.736 2.736 0 0 1 1.606 2.315z" fill="#ffffff" opacity="1" data-original="#000000" class=""></path><path fill="#f8749d" d="m15.484 9.718-4.3 4.3a.75.75 0 0 1-1.061 0L8.516 12.4a.75.75 0 1 1 1.06-1.061l1.081 1.081 3.767-3.766a.75.75 0 1 1 1.06 1.06z" opacity="1" data-original="#1fc759" class=""></path></g></g></svg>