<svg xmlns="http://www.w3.org/2000/svg" version="1.1" xmlns:xlink="http://www.w3.org/1999/xlink" width="512" height="512" x="0" y="0" viewBox="0 0 24 24" style="enable-background:new 0 0 512 512" xml:space="preserve" class=""><g><g data-name="1"><path fill="#f8749d" d="M12 12.75A3.25 3.25 0 1 0 15.25 16 3.254 3.254 0 0 0 12 12.75zm0 5A1.75 1.75 0 1 1 13.75 16 1.752 1.752 0 0 1 12 17.75z" opacity="1" data-original="#1fc759"></path><path d="M18.75 9.348V8c0-2.9-.7-6.75-6.75-6.75S5.25 5.1 5.25 8v1.348c-3.016.37-4 1.9-4 5.652v2c0 4.407 1.344 5.75 5.75 5.75h10c4.406 0 5.75-1.343 5.75-5.75v-2c0-3.756-.984-5.282-4-5.652zM6.75 8c0-3.151.893-5.25 5.25-5.25s5.25 2.1 5.25 5.25v1.255c-.085 0-.163-.005-.25-.005H7c-.087 0-.165 0-.25.005zm14.5 9c0 3.575-.675 4.25-4.25 4.25H7c-3.575 0-4.25-.675-4.25-4.25v-2c0-3.575.675-4.25 4.25-4.25h10c3.575 0 4.25.675 4.25 4.25z" fill="#ffffff" opacity="1" data-original="#000000" class=""></path></g></g></svg>