<svg xmlns="http://www.w3.org/2000/svg" version="1.1" xmlns:xlink="http://www.w3.org/1999/xlink" width="512" height="512" x="0" y="0" viewBox="0 0 24 24" style="enable-background:new 0 0 512 512" xml:space="preserve" class=""><g><g data-name="1"><path d="M15 1.25H9c-.3 0-.594.01-.879.024A.81.81 0 0 0 8 1.25a.732.732 0 0 0-.261.053C3.213 1.655 1.25 4.011 1.25 9v6c0 4.989 1.963 7.345 6.489 7.7a.732.732 0 0 0 .261.05.81.81 0 0 0 .121-.024c.285.014.575.024.879.024h6c5.432 0 7.75-2.317 7.75-7.75V9c0-5.433-2.318-7.75-7.75-7.75zM2.75 15V9c0-3.973 1.218-5.734 4.5-6.148v18.3c-3.282-.418-4.5-2.179-4.5-6.152zm18.5 0c0 4.614-1.636 6.25-6.25 6.25H9c-.087 0-.165 0-.25-.006V2.756c.085 0 .163-.006.25-.006h6c4.614 0 6.25 1.636 6.25 6.25z" fill="#ffffff" opacity="1" data-original="#000000" class=""></path><path fill="#f8749d" d="M15.53 14.029a.75.75 0 1 1-1.06 1.061l-2.56-2.56a.749.749 0 0 1 0-1.06l2.56-2.56a.75.75 0 0 1 1.06 1.061L13.5 12z" opacity="1" data-original="#1fc759" class=""></path></g></g></svg>