<svg xmlns="http://www.w3.org/2000/svg" version="1.1" xmlns:xlink="http://www.w3.org/1999/xlink" width="512" height="512" x="0" y="0" viewBox="0 0 24 24" style="enable-background:new 0 0 512 512" xml:space="preserve" class=""><g><g data-name="1"><path fill="#f8749d" d="M9.942 10.729a2.283 2.283 0 0 1 0 2.541 7.078 7.078 0 0 1-2.718 2.4.75.75 0 1 1-.671-1.342 5.577 5.577 0 0 0 2.141-1.891.787.787 0 0 0 0-.877 5.583 5.583 0 0 0-2.141-1.89.75.75 0 1 1 .671-1.342 7.084 7.084 0 0 1 2.718 2.401zM17 14.25h-4a.75.75 0 0 0 0 1.5h4a.75.75 0 0 0 0-1.5z" opacity="1" data-original="#1fc759"></path><path d="M15 1.25H9C3.568 1.25 1.25 3.568 1.25 9v6c0 5.432 2.318 7.75 7.75 7.75h6c5.432 0 7.75-2.318 7.75-7.75V9c0-5.432-2.318-7.75-7.75-7.75zM21.25 15c0 4.614-1.636 6.25-6.25 6.25H9c-4.614 0-6.25-1.636-6.25-6.25V9c0-4.614 1.636-6.25 6.25-6.25h6c4.614 0 6.25 1.636 6.25 6.25z" fill="#ffffff" opacity="1" data-original="#000000" class=""></path></g></g></svg>