<svg xmlns="http://www.w3.org/2000/svg" version="1.1" xmlns:xlink="http://www.w3.org/1999/xlink" width="512" height="512" x="0" y="0" viewBox="0 0 24 24" style="enable-background:new 0 0 512 512" xml:space="preserve" class=""><g><g data-name="1"><path d="M19.75 15.326V6.5A2.752 2.752 0 0 0 17 3.75h-3.929l1.409-1.174a.75.75 0 1 0-.96-1.152l-3 2.5a.749.749 0 0 0 0 1.152l3 2.5a.75.75 0 0 0 .96-1.152L13.071 5.25H17a1.252 1.252 0 0 1 1.25 1.25v8.826a3.75 3.75 0 1 0 1.5 0zM19 21.25A2.25 2.25 0 1 1 21.25 19 2.252 2.252 0 0 1 19 21.25zm-5.75-1.75a.75.75 0 0 1-.75.75H7a2.752 2.752 0 0 1-2.75-2.75V8a.75.75 0 0 1 1.5 0v9.5A1.252 1.252 0 0 0 7 18.75h5.5a.75.75 0 0 1 .75.75z" fill="#ffffff" opacity="1" data-original="#000000"></path><path fill="#f8749d" d="M13.75 19.5a.748.748 0 0 1-.27.576l-3 2.5a.75.75 0 0 1-.96-1.152l2.309-1.924-2.309-1.924a.75.75 0 0 1 .96-1.152l3 2.5a.748.748 0 0 1 .27.576zM8.75 5A3.75 3.75 0 1 1 5 1.25 3.754 3.754 0 0 1 8.75 5zm-1.5 0A2.25 2.25 0 1 0 5 7.25 2.252 2.252 0 0 0 7.25 5z" opacity="1" data-original="#1fc759" class=""></path></g></g></svg>