<svg xmlns="http://www.w3.org/2000/svg" version="1.1" xmlns:xlink="http://www.w3.org/1999/xlink" width="512" height="512" x="0" y="0" viewBox="0 0 24 24" style="enable-background:new 0 0 512 512" xml:space="preserve" class=""><g><g data-name="1"><path fill="#f8749d" d="M15.75 10v1a.75.75 0 0 1-1.5 0v-1c0-1.459-.358-2.25-2.25-2.25S9.75 8.541 9.75 10v1a.75.75 0 0 1-1.5 0v-1c0-.928 0-3.75 3.75-3.75s3.75 2.822 3.75 3.75zm-2.4 4A1.35 1.35 0 1 1 12 12.65 1.351 1.351 0 0 1 13.35 14zm-1.2 0a.15.15 0 0 0-.3 0c0 .165.3.165.3 0z" opacity="1" data-original="#1fc759" class=""></path><path d="M14.5 10.25h-5c-2.4 0-3.25.851-3.25 3.25v1c0 2.4.851 3.25 3.25 3.25h5c2.4 0 3.25-.851 3.25-3.25v-1c0-2.4-.85-3.25-3.25-3.25zm1.75 4.25c0 1.586-.163 1.75-1.75 1.75h-5c-1.587 0-1.75-.164-1.75-1.75v-1c0-1.586.163-1.75 1.75-1.75h5c1.587 0 1.75.164 1.75 1.75zM12 1.25A10.75 10.75 0 1 0 22.75 12 10.762 10.762 0 0 0 12 1.25zm0 20A9.25 9.25 0 1 1 21.25 12 9.26 9.26 0 0 1 12 21.25z" fill="#ffffff" opacity="1" data-original="#000000" class=""></path></g></g></svg>