<svg xmlns="http://www.w3.org/2000/svg" version="1.1" xmlns:xlink="http://www.w3.org/1999/xlink" width="512" height="512" x="0" y="0" viewBox="0 0 24 24" style="enable-background:new 0 0 512 512" xml:space="preserve" class=""><g><g data-name="1"><path fill="#f8749d" d="M9.719 19.253a.75.75 0 1 1-1.06 1.06l-2.3-2.3a.75.75 0 1 1 1.061-1.06zm7.031-9.758a2.25 2.25 0 1 1-2.25-2.25 2.253 2.253 0 0 1 2.25 2.25zm-1.5 0a.75.75 0 1 0-.75.75.75.75 0 0 0 .75-.75z" opacity="1" data-original="#1fc759"></path><path d="M20.318 3.686A8.323 8.323 0 0 0 6.363 11.6l-4.389 4.385a2.719 2.719 0 0 0-.7 2.118l.3 2.191a2.627 2.627 0 0 0 2.138 2.13l2.172.3a2.141 2.141 0 0 0 .3.021 2.7 2.7 0 0 0 1.825-.724l4.4-4.388a8.293 8.293 0 0 0 7.909-2.179 8.331 8.331 0 0 0 0-11.765zm-1.058 10.7a6.79 6.79 0 0 1-6.845 1.686.754.754 0 0 0-.755.185l-4.721 4.711a1.179 1.179 0 0 1-.844.27l-2.184-.3a1.139 1.139 0 0 1-.855-.857l-.3-2.191a1.25 1.25 0 0 1 .28-.845l4.7-4.7a.75.75 0 0 0 .184-.745 6.818 6.818 0 1 1 11.34 2.794z" fill="#ffffff" opacity="1" data-original="#000000" class=""></path></g></g></svg>