<svg xmlns="http://www.w3.org/2000/svg" version="1.1" xmlns:xlink="http://www.w3.org/1999/xlink" width="512" height="512" x="0" y="0" viewBox="0 0 24 24" style="enable-background:new 0 0 512 512" xml:space="preserve" class=""><g><g data-name="1"><path d="M15 1.25H9C3.568 1.25 1.25 3.568 1.25 9v6c0 5.432 2.318 7.75 7.75 7.75h6c5.432 0 7.75-2.318 7.75-7.75V9c0-5.432-2.318-7.75-7.75-7.75zM21.25 15c0 4.614-1.636 6.25-6.25 6.25H9c-4.614 0-6.25-1.636-6.25-6.25V9c0-4.614 1.636-6.25 6.25-6.25h6c4.614 0 6.25 1.636 6.25 6.25z" fill="#ffffff" opacity="1" data-original="#000000" class=""></path><path fill="#f8749d" d="M10.127 9.505 7.637 12l2.49 2.5a.75.75 0 0 1-1.06 1.061l-2.491-2.496a1.508 1.508 0 0 1 0-2.13l2.491-2.491a.75.75 0 1 1 1.06 1.061zm7.3 1.43-2.494-2.491a.75.75 0 1 0-1.06 1.061l2.49 2.5-2.49 2.495a.75.75 0 0 0 1.06 1.061l2.491-2.491a1.508 1.508 0 0 0 0-2.135z" opacity="1" data-original="#1fc759" class=""></path></g></g></svg>