<svg xmlns="http://www.w3.org/2000/svg" version="1.1" xmlns:xlink="http://www.w3.org/1999/xlink" width="512" height="512" x="0" y="0" viewBox="0 0 24 24" style="enable-background:new 0 0 512 512" xml:space="preserve" class=""><g><g data-name="1"><path d="M19 15.25c-.118 0-.229.024-.344.035a6.711 6.711 0 0 0-6.132-4.011H12.5l-3.431.014h-.015a3.3 3.3 0 0 1-3.2-2.476.743.743 0 0 0-.773-.546A.725.725 0 0 0 5 8.25a.75.75 0 0 0-.75.75v6.326a3.75 3.75 0 1 0 1.5 0v-3.872a4.787 4.787 0 0 0 3.3 1.334h.018l3.431-.014h.021a5.22 5.22 0 0 1 4.692 2.948A3.72 3.72 0 1 0 19 15.25zM7.25 19A2.25 2.25 0 1 1 5 16.75 2.253 2.253 0 0 1 7.25 19zM19 21.25A2.25 2.25 0 1 1 21.25 19 2.253 2.253 0 0 1 19 21.25z" fill="#ffffff" opacity="1" data-original="#000000"></path><path fill="#f8749d" d="M5.25 1.25a4 4 0 1 0 4 4 4 4 0 0 0-4-4zm0 6.5a2.5 2.5 0 1 1 2.5-2.5 2.5 2.5 0 0 1-2.5 2.5z" opacity="1" data-original="#1fc759" class=""></path></g></g></svg>