<svg xmlns="http://www.w3.org/2000/svg" version="1.1" xmlns:xlink="http://www.w3.org/1999/xlink" width="512" height="512" x="0" y="0" viewBox="0 0 24 24" style="enable-background:new 0 0 512 512" xml:space="preserve" class=""><g><g data-name="1"><path d="M15 1.25H9C3.568 1.25 1.25 3.567 1.25 9v6c0 5.433 2.318 7.75 7.75 7.75h6c5.432 0 7.75-2.317 7.75-7.75V9c0-5.433-2.318-7.75-7.75-7.75zM2.75 15V9c0-4.614 1.636-6.25 6.25-6.25h5.25v18.5H9c-4.614 0-6.25-1.636-6.25-6.25zm18.5 0c0 4.354-1.459 6.054-5.5 6.232V2.768c4.041.178 5.5 1.878 5.5 6.232z" fill="#ffffff" opacity="1" data-original="#000000"></path><path fill="#f8749d" d="m11.09 12.53-2.56 2.56a.75.75 0 0 1-1.06-1.061L9.5 12 7.47 9.971A.75.75 0 0 1 8.53 8.91l2.56 2.56a.749.749 0 0 1 0 1.06z" opacity="1" data-original="#1fc759" class=""></path></g></g></svg>