<svg xmlns="http://www.w3.org/2000/svg" version="1.1" xmlns:xlink="http://www.w3.org/1999/xlink" width="512" height="512" x="0" y="0" viewBox="0 0 24 24" style="enable-background:new 0 0 512 512" xml:space="preserve" class=""><g><g data-name="1"><path d="M1.25 9V6.5A5.256 5.256 0 0 1 6.5 1.25H9a.75.75 0 0 1 0 1.5H6.5A3.755 3.755 0 0 0 2.75 6.5V9a.75.75 0 0 1-1.5 0zM17.5 1.25H15a.75.75 0 0 0 0 1.5h2.5a3.755 3.755 0 0 1 3.75 3.75V9a.75.75 0 0 0 1.5 0V6.5a5.256 5.256 0 0 0-5.25-5.25zm4.5 14a.75.75 0 0 0-.75.75v1.5a3.755 3.755 0 0 1-3.75 3.75H16a.75.75 0 0 0 0 1.5h1.5a5.256 5.256 0 0 0 5.25-5.25V16a.75.75 0 0 0-.75-.75zm-13 6H6.5a3.755 3.755 0 0 1-3.75-3.75V15a.75.75 0 0 0-1.5 0v2.5a5.256 5.256 0 0 0 5.25 5.25H9a.75.75 0 0 0 0-1.5zm5-3h-4a3.383 3.383 0 0 1-3.75-3.75v-5A3.383 3.383 0 0 1 10 5.75h4a3.383 3.383 0 0 1 3.75 3.75v5A3.383 3.383 0 0 1 14 18.25zm2.25-8.75c0-1.577-.673-2.25-2.25-2.25h-4c-1.577 0-2.25.673-2.25 2.25v5c0 1.577.673 2.25 2.25 2.25h4c1.577 0 2.25-.673 2.25-2.25z" fill="#ffffff" opacity="1" data-original="#000000"></path><path fill="#f8749d" d="M19.75 12a.75.75 0 0 1-.75.75H5a.75.75 0 0 1 0-1.5h14a.75.75 0 0 1 .75.75z" opacity="1" data-original="#1fc759" class=""></path></g></g></svg>