<svg xmlns="http://www.w3.org/2000/svg" version="1.1" xmlns:xlink="http://www.w3.org/1999/xlink" width="512" height="512" x="0" y="0" viewBox="0 0 24 24" style="enable-background:new 0 0 512 512" xml:space="preserve" class=""><g><g data-name="1"><path d="M11.77 19.5a.75.75 0 0 1-.75.75H7.5a12.557 12.557 0 0 1-1.766-.1C2.406 19.786 1.75 17.8 1.75 14.5v-5c0-3.3.656-5.286 4.008-5.656A12.48 12.48 0 0 1 7.5 3.75h3.46a.75.75 0 0 1 0 1.5H7.5a10.945 10.945 0 0 0-1.554.083c-2.029.224-2.7.856-2.7 4.167v5c0 3.311.667 3.943 2.672 4.165a11.2 11.2 0 0 0 1.582.085h3.52a.75.75 0 0 1 .75.75zm10.48-10v5c0 3.3-.656 5.286-4.008 5.656a12.48 12.48 0 0 1-1.742.094h-.75V22a.75.75 0 0 1-1.5 0V2a.75.75 0 0 1 1.5 0v1.75h.75a12.557 12.557 0 0 1 1.766.1c3.328.364 3.984 2.35 3.984 5.65zm-1.5 0c0-3.311-.667-3.943-2.672-4.165A11.2 11.2 0 0 0 16.5 5.25h-.75v13.5h.75a10.945 10.945 0 0 0 1.554-.083c2.029-.224 2.7-.856 2.7-4.167z" fill="#ffffff" opacity="1" data-original="#000000"></path><path fill="#f8749d" d="M7.41 11.29a1.052 1.052 0 0 1 .29.71 1.5 1.5 0 0 1-.02.2.636.636 0 0 1-.06.18.757.757 0 0 1-.09.18l-.12.15-.15.12a.757.757 0 0 1-.18.09.636.636 0 0 1-.18.06 1.5 1.5 0 0 1-.2.02 1.052 1.052 0 0 1-.71-.29 1.576 1.576 0 0 1-.12-.15.757.757 0 0 1-.09-.18.636.636 0 0 1-.06-.18 1.5 1.5 0 0 1-.02-.2 1 1 0 0 1 .08-.38 1.155 1.155 0 0 1 .21-.33 1.155 1.155 0 0 1 .33-.21.956.956 0 0 1 .58-.06.636.636 0 0 1 .18.06.757.757 0 0 1 .18.09 1.576 1.576 0 0 1 .15.12zm4 0a1.576 1.576 0 0 0-.15-.12.757.757 0 0 0-.18-.09.636.636 0 0 0-.18-.06.956.956 0 0 0-.58.06.9.9 0 0 0-.54.54 1 1 0 0 0-.08.38 1.5 1.5 0 0 0 .02.2.636.636 0 0 0 .06.18.757.757 0 0 0 .09.18l.12.15a1.155 1.155 0 0 0 .33.21.838.838 0 0 0 .38.08 1.355 1.355 0 0 0 .2-.02.636.636 0 0 0 .18-.06.757.757 0 0 0 .18-.09l.15-.12a1.576 1.576 0 0 0 .12-.15.757.757 0 0 0 .09-.18.636.636 0 0 0 .06-.18 1.5 1.5 0 0 0 .02-.2 1.052 1.052 0 0 0-.29-.71z" opacity="1" data-original="#1fc759" class=""></path></g></g></svg>